<svg width="200" height="150" viewBox="0 0 250 90" fill="none" xmlns="http://www.w3.org/2000/svg" class="Dark:text-white">
<path fill-rule="evenodd" clip-rule="evenodd" d="M174.079 0H0L0.0939905 89.1449H174.079V0Z" fill="#E30016"/>
<path fill-rule="evenodd" clip-rule="evenodd" d="M140.634 84.7252H135.832V76.7203H140.449V78.1837H137.637V79.9688H140.255V81.4315H137.637V83.2619H140.633V84.7252H140.634ZM126.438 78.0712V80.3008H127.218C127.607 80.3008 127.915 80.1883 128.151 79.966C128.389 79.7383 128.507 79.457 128.507 79.1188C128.507 78.4224 128.09 78.0712 127.251 78.0712H126.438ZM131.348 84.7252H129.279L128.033 82.6643C127.942 82.5093 127.851 82.37 127.765 82.2465C127.679 82.123 127.594 82.0187 127.508 81.9302C127.419 81.8445 127.328 81.7772 127.232 81.732C127.138 81.6839 127.034 81.662 126.924 81.662H126.439V84.7252H124.63V76.7203H127.489C129.432 76.7203 130.405 77.4468 130.405 78.8965C130.405 79.1778 130.365 79.435 130.279 79.671C130.193 79.907 130.07 80.1211 129.915 80.3091C129.757 80.4991 129.569 80.6651 129.349 80.8017C129.127 80.9389 128.88 81.0486 128.61 81.1262V81.1474C128.728 81.1852 128.843 81.2442 128.955 81.3299C129.065 81.4129 129.175 81.5097 129.28 81.6222C129.381 81.732 129.484 81.8527 129.578 81.9837C129.672 82.11 129.76 82.2355 129.838 82.359L131.348 84.7252ZM116.957 81.5577L116.091 78.8697C116.029 78.6687 115.981 78.4279 115.955 78.1514H115.911C115.893 78.3847 115.847 78.6179 115.769 78.8485L114.896 81.5577H116.957ZM119.899 84.7252H117.933L117.373 82.9408H114.508L113.953 84.7252H111.996L114.912 76.7203H117.05L119.899 84.7252ZM107.725 84.4385C107.14 84.7225 106.377 84.8617 105.436 84.8617C104.206 84.8617 103.241 84.5029 102.536 83.7792C101.834 83.0588 101.48 82.0963 101.48 80.8929C101.48 79.6148 101.877 78.5747 102.667 77.7789C103.46 76.9831 104.484 76.5838 105.749 76.5838C106.529 76.5838 107.188 76.6833 107.724 76.8815V78.6179C107.188 78.2989 106.577 78.1384 105.894 78.1384C105.14 78.1384 104.535 78.3737 104.071 78.8485C103.61 79.3198 103.38 79.9606 103.38 80.7674C103.38 81.5419 103.597 82.158 104.034 82.6163C104.468 83.0773 105.055 83.3078 105.792 83.3078C106.494 83.3078 107.14 83.1363 107.724 82.7933V84.4385H107.725ZM96.4185 84.7252H94.6128V81.4665H91.2977V84.7252H89.4886V76.7203H91.2977V79.9125H94.6128V76.7203H96.4185V84.7252ZM84.68 78.1837H82.3914V84.7252H80.585V78.1837H78.31V76.7203H84.68V78.1837V78.1837ZM74.2417 84.7252H69.4743V76.7203H71.2807V83.2619H74.2417V84.7252ZM61.7994 81.5577L60.9335 78.8697C60.8718 78.6687 60.8265 78.4279 60.7998 78.1514H60.7538C60.7353 78.3847 60.6893 78.6179 60.6145 78.8485L59.7384 81.5577H61.7994ZM64.7419 84.7252H62.7742L62.2144 82.9408H59.3494L58.7951 84.7252H56.8412L59.7542 76.7203H61.8954L64.7419 84.7252ZM52.6796 84.7252H47.8772V76.7203H52.4971V78.1837H49.6829V79.9688H52.3043V81.4315H49.6829V83.2619H52.6796V84.7252ZM42.3105 84.7252H40.5048V81.4665H37.1891V84.7252H35.3807V76.7203H37.1891V79.9125H40.5048V76.7203H42.3105V84.7252Z" fill="white" fill="current"/>
<path fill-rule="evenodd" clip-rule="evenodd" d="M98.3025 50.1283C98.7635 49.8093 99.5621 48.8097 101.781 47.2578C103.999 45.7087 110.088 45.0926 110.469 50.3609V58.9688C110.469 61.0325 107.872 61.9943 106.618 61.9943C105.145 61.9943 103.705 62.0321 102.655 60.8987C101.701 59.8696 101.69 58.8001 101.69 57.4574C101.69 53.4968 107.623 53.2848 108.543 52.3285C104.408 52.3285 96.3006 52.9741 96.3006 58.2135C96.3006 60.4459 97.0003 61.8098 98.5837 63.0557C100.8 64.814 104.994 65.1488 107.835 64.2213C108.462 64.023 109.603 63.6374 110.161 63.3452L110.083 64.7255H115.553L115.275 49.8813C114.95 47.2846 114.05 45.6442 112.26 44.4436C110.509 43.2698 106.147 42.6832 102.835 44.2131C100.669 45.2127 98.4335 46.9793 98.3025 50.1283Z" fill="white"/>
<path d="M98.3025 50.1283C98.7635 49.8093 99.5621 48.8097 101.781 47.2578C103.999 45.7087 110.088 45.0926 110.469 50.3609V58.9688C110.469 61.0325 107.872 61.9943 106.618 61.9943C105.145 61.9943 103.705 62.0321 102.655 60.8987C101.701 59.8696 101.69 58.8001 101.69 57.4574C101.69 53.4968 107.623 53.2848 108.543 52.3285C104.408 52.3285 96.3006 52.9741 96.3006 58.2135C96.3006 60.4459 97.0003 61.8098 98.5837 63.0557C100.8 64.814 104.994 65.1488 107.835 64.2213C108.462 64.023 109.603 63.6374 110.161 63.3452L110.083 64.7255H115.553L115.275 49.8813C114.95 47.2846 114.05 45.6442 112.26 44.4436C110.509 43.2698 106.147 42.6832 102.835 44.2131C100.669 45.2127 98.4335 46.9793 98.3025 50.1283Z" stroke="white" stroke-width="0.216"/>
<path fill-rule="evenodd" clip-rule="evenodd" d="M42.4183 43.7011C46.6711 43.7011 46.1134 43.9288 46.1134 56.2326C46.1134 59.3466 45.9954 60.6652 47.3407 62.5464C49.0778 65.0306 55.0993 65.3901 57.3695 63.629C58.7656 62.5971 59.0147 60.6734 58.9714 59.1991C57.9856 60.3139 56.466 62.0771 53.352 62.0771C50.5542 62.0771 50.8732 57.7117 50.8863 55.4663C50.9055 52.2768 51.042 49.4983 51.042 46.223L58.2806 46.376L58.9852 43.2963L51.042 43.7011L51.5058 37.1355L42.4183 43.7011Z" fill="white"/>
<path d="M42.4183 43.7011C46.6711 43.7011 46.1134 43.9288 46.1134 56.2326C46.1134 59.3466 45.9954 60.6652 47.3407 62.5464C49.0778 65.0306 55.0993 65.3901 57.3695 63.629C58.7656 62.5971 59.0147 60.6734 58.9714 59.1991C57.9856 60.3139 56.466 62.0771 53.352 62.0771C50.5542 62.0771 50.8732 57.7117 50.8863 55.4663C50.9055 52.2768 51.042 49.4983 51.042 46.223L58.2806 46.376L58.9852 43.2963L51.042 43.7011L51.5058 37.1355L42.4183 43.7011Z" stroke="white" stroke-width="0.216"/>
<path fill-rule="evenodd" clip-rule="evenodd" d="M25.3231 39.0196C25.3231 39.3791 30.5646 49.6617 31.1731 50.8781C31.9395 52.4059 36.7179 61.3054 36.7179 62.9005C36.7179 64.2267 36.2733 64.0497 35.083 64.7254H43.6505C43.6505 63.5969 42.7956 62.8443 41.8496 61.1504C39.3283 56.643 36.2115 49.825 33.7404 44.9238L31.0716 39.4298L28.0351 32.2983L25.3231 39.0196Z" fill="white"/>
<path d="M25.3231 39.0196C25.3231 39.3791 30.5646 49.6617 31.1731 50.8781C31.9395 52.4059 36.7179 61.3054 36.7179 62.9005C36.7179 64.2267 36.2733 64.0497 35.083 64.7254H43.6505C43.6505 63.5969 42.7956 62.8443 41.8496 61.1504C39.3283 56.643 36.2115 49.825 33.7404 44.9238L31.0716 39.4298L28.0351 32.2983L25.3231 39.0196Z" stroke="white" stroke-width="0.216"/>
<path fill-rule="evenodd" clip-rule="evenodd" d="M86.7114 64.7201H92.8702C92.8434 63.4042 92.2562 61.8016 92.2562 58.6985V41.4476C92.2562 40.0543 92.3982 36.884 92.4064 35.6511C92.4167 33.6945 93.0252 33.5497 93.0252 32.3224H86.5564C86.5564 33.1937 86.6819 33.2657 86.907 33.9175C87.7001 36.2164 87.438 56.9402 87.178 60.861C87.0922 62.1473 86.7114 63.5812 86.7114 64.7201Z" fill="white"/>
<path d="M86.7114 64.7201H92.8702C92.8434 63.4042 92.2562 61.8016 92.2562 58.6985V41.4476C92.2562 40.0543 92.3982 36.884 92.4064 35.6511C92.4167 33.6945 93.0252 33.5497 93.0252 32.3224H86.5564C86.5564 33.1937 86.6819 33.2657 86.907 33.9175C87.7001 36.2164 87.438 56.9402 87.178 60.861C87.0922 62.1473 86.7114 63.5812 86.7114 64.7201Z" stroke="white" stroke-width="0.216"/>
<path fill-rule="evenodd" clip-rule="evenodd" d="M77.8009 51.1519C77.8009 53.9119 77.8969 58.527 77.6239 61.1395C77.4284 63.0207 77.4338 63.4309 76.568 64.72L82.547 64.7173L82.5765 51.921C82.5765 50.3904 82.7343 49.2728 82.7261 47.9144C82.7158 45.7464 83.3456 45.5557 83.3456 43.7576H76.8761C77.7042 47.3086 77.8009 46.9333 77.8009 51.1519Z" fill="white"/>
<path d="M77.8009 51.1519C77.8009 53.9119 77.8969 58.527 77.6239 61.1395C77.4284 63.0207 77.4338 63.4309 76.568 64.72L82.547 64.7173L82.5765 51.921C82.5765 50.3904 82.7343 49.2728 82.7261 47.9144C82.7158 45.7464 83.3456 45.5557 83.3456 43.7576H76.8761C77.7042 47.3086 77.8009 46.9333 77.8009 51.1519Z" stroke="white" stroke-width="0.216"/>
<path fill-rule="evenodd" clip-rule="evenodd" d="M128.717 63.4742C127.111 67.277 124.842 69.6562 121.409 71.1463C119.533 71.9614 119.061 71.7096 117.006 71.8461C126.125 77.4656 130.856 66.7274 133.742 60.8555C134.431 59.7008 135.283 57.9267 135.827 56.6081L139.817 47.9679C140.607 46.3838 140.594 45.955 141.639 45.0172C142.033 44.6638 142.076 44.4704 142.076 43.7576H136.685C136.722 45.4302 137.617 44.6446 136.068 47.7614L128.717 63.4742Z" fill="white"/>
<path d="M128.717 63.4742C127.111 67.277 124.842 69.6562 121.409 71.1463C119.533 71.9614 119.061 71.7096 117.006 71.8461C126.125 77.4656 130.856 66.7274 133.742 60.8555C134.431 59.7008 135.283 57.9267 135.827 56.6081L139.817 47.9679C140.607 46.3838 140.594 45.955 141.639 45.0172C142.033 44.6638 142.076 44.4704 142.076 43.7576H136.685C136.722 45.4302 137.617 44.6446 136.068 47.7614L128.717 63.4742Z" stroke="white" stroke-width="0.216"/>
<path fill-rule="evenodd" clip-rule="evenodd" d="M127.299 61.9333L129.762 56.5409C129.762 56.3426 127.227 51.4682 126.888 50.7924C125.385 47.7882 124.525 47.1556 124.525 43.7576H117.75C117.844 44.8861 119.125 46.036 120.264 48.1744L122.627 52.7435C124.193 55.8761 125.699 58.9098 127.299 61.9333Z" fill="white"/>
<path d="M127.299 61.9333L129.762 56.5409C129.762 56.3426 127.227 51.4682 126.888 50.7924C125.385 47.7882 124.525 47.1556 124.525 43.7576H117.75C117.844 44.8861 119.125 46.036 120.264 48.1744L122.627 52.7435C124.193 55.8761 125.699 58.9098 127.299 61.9333Z" stroke="white" stroke-width="0.216"/>
<path fill-rule="evenodd" clip-rule="evenodd" d="M12.076 64.7227H18.7328C18.1167 64.1896 17.795 63.4768 17.7922 62.6432C17.7765 59.2905 19.0333 55.3347 21.7803 52.9122C23.7204 51.1998 26.5072 50.3985 28.9674 50.3985C28.4151 49.6452 23.5592 48.5709 19.9924 51.2478C16.4606 53.9015 15.155 59.615 12.8183 63.0185C12.4108 63.6106 12.218 63.5434 12.1377 63.8171C12.0918 63.9694 12.076 64.3049 12.076 64.7227Z" fill="white"/>
<path d="M12.076 64.7227H18.7328C18.1167 64.1896 17.795 63.4768 17.7922 62.6432C17.7765 59.2905 19.0333 55.3347 21.7803 52.9122C23.7204 51.1998 26.5072 50.3985 28.9674 50.3985C28.4151 49.6452 23.5592 48.5709 19.9924 51.2478C16.4606 53.9015 15.155 59.615 12.8183 63.0185C12.4108 63.6106 12.218 63.5434 12.1377 63.8171C12.0918 63.9694 12.076 64.3049 12.076 64.7227Z" stroke="white" stroke-width="0.216"/>
<path fill-rule="evenodd" clip-rule="evenodd" d="M69.6623 64.7226C74.9442 64.7226 75.6008 62.9725 75.8553 59.3254C75.1288 59.9628 73.2586 62.0724 71.0557 62.0724C67.5691 62.351 67.8449 59.5182 67.8449 56.9345C67.8449 53.3705 67.8182 49.5436 68.0645 46.3302C68.1289 45.465 68.7828 44.532 68.7828 43.7629H62.3139C62.3352 44.7063 63.083 45.8424 63.083 50.2407C63.083 52.6014 63.0878 55.4636 63.0803 57.8271C63.0665 61.0996 63.5276 62.659 66.0625 63.9241C66.8371 64.2856 68.5872 64.7226 69.6623 64.7226Z" fill="white"/>
<path d="M69.6623 64.7226C74.9442 64.7226 75.6008 62.9725 75.8553 59.3254C75.1288 59.9628 73.2586 62.0724 71.0557 62.0724C67.5691 62.351 67.8449 59.5182 67.8449 56.9345C67.8449 53.3705 67.8182 49.5436 68.0645 46.3302C68.1289 45.465 68.7828 44.532 68.7828 43.7629H62.3139C62.3352 44.7063 63.083 45.8424 63.083 50.2407C63.083 52.6014 63.0878 55.4636 63.0803 57.8271C63.0665 61.0996 63.5276 62.659 66.0625 63.9241C66.8371 64.2856 68.5872 64.7226 69.6623 64.7226Z" stroke="white" stroke-width="0.216"/>
<path fill-rule="evenodd" clip-rule="evenodd" d="M144.23 50.1496C144.691 49.8333 145.49 48.8337 147.709 47.2818C149.927 45.73 156.013 45.1166 156.397 50.3856V58.9928C156.397 61.0565 153.8 62.019 152.546 62.019C151.072 62.019 149.633 62.0561 148.583 60.9227C147.628 59.8936 147.618 58.8241 147.618 57.4814C147.618 53.5208 153.549 53.3088 154.471 52.3497C150.336 52.3497 142.229 52.9981 142.229 58.2375C142.229 60.4699 142.928 61.8338 144.512 63.0776C146.728 64.8195 150.922 65.1433 153.763 64.246C154.39 64.045 155.528 63.6614 156.089 63.3692L155.998 64.7255H161.481L161.202 49.9026C160.878 47.3086 159.977 45.6689 158.187 44.4656C156.437 43.2945 152.074 42.5624 148.762 44.093C146.594 45.0954 144.361 47.0033 144.23 50.1496Z" fill="white"/>
<path d="M144.23 50.1496C144.691 49.8333 145.49 48.8337 147.709 47.2818C149.927 45.73 156.013 45.1166 156.397 50.3856V58.9928C156.397 61.0565 153.8 62.019 152.546 62.019C151.072 62.019 149.633 62.0561 148.583 60.9227C147.628 59.8936 147.618 58.8241 147.618 57.4814C147.618 53.5208 153.549 53.3088 154.471 52.3497C150.336 52.3497 142.229 52.9981 142.229 58.2375C142.229 60.4699 142.928 61.8338 144.512 63.0776C146.728 64.8195 150.922 65.1433 153.763 64.246C154.39 64.045 155.528 63.6614 156.089 63.3692L155.998 64.7255H161.481L161.202 49.9026C160.878 47.3086 159.977 45.6689 158.187 44.4656C156.437 43.2945 152.074 42.5624 148.762 44.093C146.594 45.0954 144.361 47.0033 144.23 50.1496Z" stroke="white" stroke-width="0.216"/>
<path fill-rule="evenodd" clip-rule="evenodd" d="M143.496 100.073V99.0792C144 99.4572 144.555 99.6445 145.161 99.6445C145.97 99.6445 146.375 99.3714 146.375 98.8274C146.375 98.6717 146.343 98.5406 146.274 98.4336C146.204 98.3259 146.108 98.2326 145.992 98.1496C145.872 98.0666 145.732 97.9911 145.575 97.9239C145.417 97.8601 145.242 97.7901 145.057 97.718C144.803 97.6158 144.578 97.5143 144.385 97.4093C144.192 97.305 144.028 97.1898 143.9 97.0587C143.771 96.9298 143.672 96.7823 143.608 96.6162C143.54 96.4502 143.508 96.2547 143.508 96.0352C143.508 95.7614 143.57 95.5227 143.693 95.3141C143.82 95.1049 143.986 94.9279 144.192 94.7858C144.399 94.6466 144.635 94.5396 144.899 94.4696C145.162 94.3975 145.435 94.3598 145.717 94.3598C146.217 94.3598 146.665 94.4456 147.059 94.6143V95.5522C146.636 95.2736 146.148 95.1344 145.593 95.1344C145.422 95.1344 145.266 95.1556 145.127 95.1961C144.99 95.2366 144.869 95.2928 144.77 95.3621C144.67 95.4349 144.593 95.5206 144.537 95.6221C144.483 95.7216 144.456 95.8341 144.456 95.9542C144.456 96.1044 144.483 96.2334 144.537 96.335C144.593 96.4344 144.673 96.525 144.778 96.6032C144.882 96.6835 145.011 96.7555 145.162 96.82C145.312 96.8845 145.483 96.9538 145.673 97.0292C145.931 97.1253 146.158 97.2275 146.362 97.3318C146.563 97.4368 146.737 97.552 146.879 97.6831C147.021 97.8114 147.131 97.9616 147.209 98.1304C147.286 98.2991 147.324 98.5029 147.324 98.7362C147.324 99.0229 147.262 99.272 147.137 99.4812C147.01 99.6932 146.842 99.8695 146.63 100.009C146.421 100.149 146.178 100.25 145.904 100.32C145.631 100.387 145.341 100.422 145.041 100.422C144.445 100.422 143.93 100.304 143.496 100.073ZM141.495 96.8365C141.492 96.3 141.364 95.8822 141.108 95.5817C140.854 95.2846 140.5 95.1344 140.05 95.1344C139.613 95.1344 139.243 95.2928 138.938 95.6064C138.632 95.9199 138.444 96.3295 138.372 96.8365H141.495ZM142.443 97.6213H138.361C138.377 98.2669 138.549 98.7657 138.879 99.1169C139.211 99.4702 139.666 99.6445 140.245 99.6445C140.896 99.6445 141.494 99.4304 142.038 98.9989V99.8647C141.532 100.237 140.859 100.422 140.025 100.422C139.208 100.422 138.567 100.159 138.101 99.6315C137.634 99.1059 137.401 98.3664 137.401 97.4148C137.401 96.512 137.655 95.7799 138.164 95.2119C138.676 94.6438 139.309 94.3598 140.065 94.3598C140.821 94.3598 141.407 94.6068 141.823 95.0939C142.236 95.5844 142.442 96.2657 142.442 97.1363V97.6213H142.443ZM135.918 100.283H134.993V94.4991H135.918V100.283ZM135.467 93.0309C135.301 93.0309 135.159 92.9747 135.041 92.8621C134.923 92.7496 134.867 92.6049 134.867 92.4306C134.867 92.2591 134.923 92.1143 135.041 91.9991C135.159 91.8866 135.301 91.8276 135.467 91.8276C135.636 91.8276 135.78 91.8866 135.901 91.9991C136.022 92.1143 136.081 92.2591 136.081 92.4306C136.081 92.5966 136.022 92.7386 135.901 92.8566C135.781 92.9719 135.636 93.0309 135.467 93.0309ZM133.99 95.4369C133.83 95.3141 133.597 95.2524 133.289 95.2524C132.895 95.2524 132.562 95.4369 132.297 95.8094C132.032 96.182 131.898 96.6917 131.898 97.3345V100.283H130.973V94.4991H131.898V95.6921H131.922C132.053 95.2846 132.254 94.9656 132.528 94.7378C132.799 94.51 133.101 94.3948 133.436 94.3948C133.68 94.3948 133.865 94.4215 133.991 94.4751V95.4369H133.99ZM126.683 95.1344C126.088 95.1344 125.616 95.3381 125.27 95.7456C124.924 96.1525 124.75 96.7102 124.75 97.4258C124.75 98.1118 124.927 98.6559 125.275 99.0497C125.627 99.4462 126.093 99.6445 126.683 99.6445C127.28 99.6445 127.741 99.4517 128.063 99.0634C128.385 98.6717 128.545 98.1201 128.545 97.4018C128.545 96.678 128.385 96.1182 128.063 95.7264C127.741 95.3326 127.28 95.1344 126.683 95.1344ZM126.613 100.422C125.758 100.422 125.077 100.151 124.568 99.6102C124.056 99.0682 123.802 98.3526 123.802 97.458C123.802 96.4879 124.067 95.7264 124.598 95.1796C125.128 94.6335 125.846 94.3598 126.75 94.3598C127.61 94.3598 128.282 94.6281 128.768 95.1584C129.253 95.6894 129.491 96.4262 129.491 97.3668C129.491 98.2916 129.231 99.0312 128.709 99.5855C128.188 100.143 127.489 100.422 126.613 100.422ZM122.96 100.229C122.743 100.35 122.454 100.409 122.097 100.409C121.084 100.409 120.577 99.8455 120.577 98.7121V95.2873H119.583V94.4991H120.577V93.0872L121.502 92.7867V94.4991H122.96V95.2873H121.502V98.5537C121.502 98.9427 121.569 99.2212 121.7 99.3845C121.831 99.5512 122.049 99.6342 122.357 99.6342C122.59 99.6342 122.791 99.5697 122.96 99.4407V100.229V100.229ZM117.605 97.3558L116.212 97.5493C115.78 97.6083 115.456 97.7153 115.239 97.8676C115.022 98.0233 114.912 98.2943 114.912 98.6826C114.912 98.9667 115.011 99.1972 115.214 99.3769C115.415 99.556 115.684 99.6445 116.019 99.6445C116.48 99.6445 116.858 99.484 117.157 99.1622C117.455 98.8384 117.605 98.4309 117.605 97.9348V97.3558H117.605ZM118.533 100.283H117.605V99.3797H117.584C117.182 100.073 116.59 100.422 115.804 100.422C115.228 100.422 114.778 100.269 114.451 99.9608C114.124 99.6582 113.963 99.2534 113.963 98.7471C113.963 97.6666 114.598 97.0375 115.871 96.8577L117.605 96.6162C117.605 95.6304 117.208 95.1344 116.415 95.1344C115.718 95.1344 115.091 95.3759 114.531 95.8527V94.9038C115.099 94.5423 115.753 94.3598 116.493 94.3598C117.851 94.3598 118.532 95.0809 118.532 96.5202V100.283H118.533ZM113.39 95.4369C113.227 95.3141 112.994 95.2524 112.688 95.2524C112.292 95.2524 111.962 95.4369 111.694 95.8094C111.429 96.182 111.298 96.6917 111.298 97.3345V100.283H110.37V94.4991H111.298V95.6921H111.319C111.45 95.2846 111.654 94.9656 111.925 94.7378C112.196 94.51 112.498 94.3948 112.836 94.3948C113.077 94.3948 113.262 94.4215 113.391 94.4751V95.4369H113.39ZM106.08 95.1344C105.485 95.1344 105.016 95.3381 104.667 95.7456C104.321 96.1525 104.15 96.7102 104.15 97.4258C104.15 98.1118 104.324 98.6559 104.672 99.0497C105.024 99.4462 105.492 99.6445 106.08 99.6445C106.677 99.6445 107.138 99.4517 107.46 99.0634C107.782 98.6717 107.942 98.1201 107.942 97.4018C107.942 96.678 107.782 96.1182 107.46 95.7264C107.138 95.3326 106.677 95.1344 106.08 95.1344ZM106.01 100.422C105.158 100.422 104.474 100.151 103.965 99.6102C103.456 99.0682 103.202 98.3526 103.202 97.458C103.202 96.4879 103.467 95.7264 103.997 95.1796C104.528 94.6335 105.243 94.3598 106.147 94.3598C107.01 94.3598 107.682 94.6281 108.165 95.1584C108.65 95.6894 108.891 96.4262 108.891 97.3668C108.891 98.2916 108.631 99.0312 108.108 99.5855C107.588 100.143 106.888 100.422 106.01 100.422ZM97.7207 97.1123V97.9218C97.7207 98.4041 97.8764 98.8089 98.1872 99.1437C98.498 99.4785 98.8918 99.6445 99.3693 99.6445C99.9318 99.6445 100.372 99.4304 100.688 99.0017C101.007 98.5674 101.167 97.9698 101.167 97.2035C101.167 96.5572 101.017 96.0509 100.72 95.6839C100.422 95.3196 100.02 95.1344 99.5113 95.1344C98.9727 95.1344 98.5385 95.3223 98.2112 95.6969C97.884 96.0749 97.7207 96.5469 97.7207 97.1123ZM97.742 99.4545H97.7207V100.283H96.7959V91.7226H97.7207V95.5096H97.742C98.1975 94.7433 98.865 94.3598 99.7411 94.3598C100.483 94.3598 101.065 94.6198 101.486 95.1371C101.904 95.6571 102.116 96.3514 102.116 97.222C102.116 98.1894 101.88 98.9667 101.408 99.5485C100.936 100.13 100.293 100.422 99.4763 100.422C98.712 100.422 98.1337 100.1 97.742 99.4545ZM94.1244 97.3558L92.731 97.5493C92.2995 97.6083 91.975 97.7153 91.7582 97.8676C91.5407 98.0233 91.4309 98.2943 91.4309 98.6826C91.4309 98.9667 91.5304 99.1972 91.7335 99.3769C91.9345 99.556 92.2027 99.6445 92.5375 99.6445C92.9986 99.6445 93.3766 99.484 93.6764 99.1622C93.9741 98.8384 94.1244 98.4309 94.1244 97.9348V97.3558V97.3558ZM95.0512 100.283H94.1244V99.3797H94.1031C93.6983 100.073 93.1083 100.422 92.3235 100.422C91.7472 100.422 91.2944 100.269 90.9699 99.9608C90.6433 99.6582 90.4821 99.2534 90.4821 98.7471C90.4821 97.6666 91.1174 97.0375 92.39 96.8577L94.1244 96.6162C94.1244 95.6304 93.7278 95.1344 92.9341 95.1344C92.2377 95.1344 91.6107 95.3759 91.0474 95.8527V94.9038C91.6182 94.5423 92.27 94.3598 93.0123 94.3598C94.3707 94.3598 95.0512 95.0809 95.0512 96.5202V100.283V100.283ZM89.7905 100.283H85.5939V92.1864H86.5428V99.425H89.7905V100.283V100.283ZM66.5051 97.6693V96.8118C66.5051 96.3514 66.3494 95.9569 66.0386 95.6304C65.7278 95.3004 65.3422 95.1344 64.8785 95.1344C64.3049 95.1344 63.8576 95.3436 63.5331 95.7614C63.2086 96.1799 63.048 96.7637 63.048 97.517C63.048 98.1626 63.2031 98.6772 63.5146 99.0662C63.8226 99.4545 64.2349 99.6445 64.7467 99.6445C65.2668 99.6445 65.6901 99.4599 66.0146 99.0902C66.3418 98.7204 66.5051 98.2456 66.5051 97.6693ZM67.4299 99.816C67.4299 101.939 66.4111 103 64.3797 103C63.6641 103 63.0398 102.866 62.504 102.595V101.67C63.1551 102.033 63.7767 102.214 64.3694 102.214C65.795 102.214 66.5051 101.459 66.5051 99.9477V99.3152H66.4811C66.0413 100.052 65.3793 100.422 64.495 100.422C63.7739 100.422 63.1956 100.165 62.7558 99.65C62.3188 99.1354 62.0992 98.4439 62.0992 97.5788C62.0992 96.5922 62.3352 95.8122 62.8066 95.2311C63.2813 94.6521 63.9269 94.3598 64.7495 94.3598C65.5268 94.3598 66.1058 94.6706 66.4811 95.2928H66.5051V94.4991H67.4299V99.816ZM60.7456 100.283H59.8215V96.9805C59.8215 95.7511 59.3715 95.1344 58.4734 95.1344C58.0124 95.1344 57.6289 95.3086 57.3263 95.6571C57.0238 96.0084 56.8708 96.4475 56.8708 96.9805V100.283H55.946V94.4991H56.8708V95.4589H56.8948C57.3291 94.7268 57.9616 94.3598 58.7897 94.3598C59.4222 94.3598 59.9073 94.5663 60.2421 94.9738C60.5769 95.3834 60.7456 95.9734 60.7456 96.7452V100.283ZM54.0703 100.283H53.1455V94.4991H54.0703V100.283ZM53.6203 93.0309C53.4542 93.0309 53.3115 92.9747 53.1942 92.8621C53.0762 92.7496 53.0172 92.6049 53.0172 92.4306C53.0172 92.2591 53.0762 92.1143 53.1942 91.9991C53.3115 91.8866 53.4542 91.8276 53.6203 91.8276C53.789 91.8276 53.9338 91.8866 54.0545 91.9991C54.1719 92.1143 54.2309 92.2591 54.2309 92.4306C54.2309 92.5966 54.1719 92.7386 54.0545 92.8566C53.9338 92.9719 53.789 93.0309 53.6203 93.0309ZM50.3478 97.6693V96.8118C50.3478 96.3514 50.1927 95.9569 49.8812 95.6304C49.5705 95.3004 49.1849 95.1344 48.7211 95.1344C48.1476 95.1344 47.7003 95.3436 47.3758 95.7614C47.0513 96.1799 46.8907 96.7637 46.8907 97.517C46.8907 98.1626 47.0465 98.6772 47.3572 99.0662C47.668 99.4545 48.0783 99.6445 48.5901 99.6445C49.1094 99.6445 49.5334 99.4599 49.8572 99.0902C50.1845 98.7204 50.3478 98.2456 50.3478 97.6693ZM51.2726 99.816C51.2726 101.939 50.2565 103 48.2231 103C47.5075 103 46.8825 102.866 46.3467 102.595V101.67C46.9978 102.033 47.62 102.214 48.2121 102.214C49.6377 102.214 50.3478 101.459 50.3478 99.9477V99.3152H50.3238C49.884 100.052 49.2226 100.422 48.3376 100.422C47.6173 100.422 47.0382 100.165 46.5985 99.65C46.1621 99.1354 45.9419 98.4439 45.9419 97.5788C45.9419 96.5922 46.1779 95.8122 46.652 95.2311C47.124 94.6521 47.7696 94.3598 48.5928 94.3598C49.3695 94.3598 49.9485 94.6706 50.3238 95.2928H50.3478V94.4991H51.2726V99.816ZM43.6642 97.3558L42.2708 97.5493C41.8393 97.6083 41.5148 97.7153 41.298 97.8676C41.0805 98.0233 40.9707 98.2943 40.9707 98.6826C40.9707 98.9667 41.0702 99.1972 41.274 99.3769C41.475 99.556 41.7426 99.6445 42.0773 99.6445C42.5384 99.6445 42.9164 99.484 43.2169 99.1622C43.514 98.8384 43.6642 98.4309 43.6642 97.9348V97.3558V97.3558ZM44.5918 100.283H43.6642V99.3797H43.6429C43.2382 100.073 42.6488 100.422 41.8633 100.422C41.287 100.422 40.8342 100.269 40.5097 99.9608C40.1832 99.6582 40.0219 99.2534 40.0219 98.7471C40.0219 97.6666 40.6572 97.0375 41.9305 96.8577L43.6642 96.6162C43.6642 95.6304 43.2677 95.1344 42.4746 95.1344C41.7775 95.1344 41.1505 95.3759 40.5879 95.8527V94.9038C41.1587 94.5423 41.8098 94.3598 42.5521 94.3598C43.9105 94.3598 44.5918 95.0809 44.5918 96.5202V100.283V100.283ZM38.6985 100.283H37.7737V96.9565C37.7737 96.3164 37.677 95.8527 37.476 95.5659C37.2804 95.2791 36.9484 95.1344 36.4819 95.1344C36.0853 95.1344 35.7478 95.3169 35.472 95.6784C35.1955 96.04 35.0562 96.4742 35.0562 96.9805V100.283H34.1314V96.844C34.1314 95.7052 33.6924 95.1344 32.8156 95.1344C32.4088 95.1344 32.0733 95.3059 31.8085 95.6489C31.5457 95.9892 31.4147 96.4317 31.4147 96.9805V100.283H30.4871V94.4991H31.4147V95.4081H31.4359C31.8482 94.7083 32.4437 94.3598 33.2341 94.3598C33.6279 94.3598 33.9709 94.4696 34.2659 94.6898C34.5602 94.9093 34.7612 95.1961 34.869 95.5549C35.3005 94.7563 35.9378 94.3598 36.7899 94.3598C38.0632 94.3598 38.6985 95.1453 38.6985 96.7157V100.283V100.283ZM29.2728 92.1864V92.9959H28.4852V99.473H29.2728V100.283H26.7515V99.473H27.5364V92.9959H26.7515V92.1864H29.2728Z" fill="#1B1918"/>
<path fill-rule="evenodd" clip-rule="evenodd" d="M76.1476 93.9335C76.1476 93.8237 76.1284 93.727 76.0858 93.6385C76.0454 93.5527 75.9891 93.4807 75.9171 93.4217C75.8471 93.3627 75.7668 93.3202 75.6756 93.2879C75.5843 93.253 75.491 93.2392 75.3888 93.2392C75.2653 93.2392 75.1528 93.2584 75.0485 93.2955C74.947 93.3332 74.8557 93.384 74.7803 93.4457C74.7028 93.513 74.6438 93.5877 74.604 93.6762C74.5607 93.7647 74.5422 93.8587 74.5422 93.9603C74.5422 94.175 74.6067 94.365 74.7377 94.5448C74.8688 94.7218 75.0327 94.8638 75.2283 94.9736C75.3511 94.9276 75.4691 94.8741 75.5795 94.8151C75.6893 94.7561 75.7854 94.6813 75.8711 94.601C75.9541 94.518 76.0214 94.4213 76.0721 94.3115C76.1229 94.2018 76.1476 94.0783 76.1476 93.9335ZM75.1048 99.0549C75.3271 99.0549 75.5363 99.0337 75.7318 98.9904C75.9274 98.9479 76.1126 98.8917 76.2841 98.8189C76.4584 98.7469 76.6189 98.6639 76.7692 98.5699C76.9167 98.4759 77.0532 98.3771 77.1794 98.2749C76.986 97.9751 76.7959 97.7205 76.6086 97.5113C76.4179 97.3048 76.2334 97.1251 76.0481 96.9782C75.8636 96.8307 75.6811 96.7045 75.4958 96.603C75.314 96.5007 75.1315 96.4095 74.947 96.3265C74.7913 96.4019 74.6438 96.485 74.5017 96.5762C74.3625 96.6695 74.2362 96.7772 74.1292 96.9C74.0194 97.0208 73.9309 97.16 73.8644 97.3158C73.7999 97.4708 73.7649 97.6533 73.7649 97.8543C73.7649 98.0341 73.7999 98.1974 73.8617 98.3449C73.9255 98.4924 74.0167 98.6179 74.1347 98.7229C74.2527 98.8299 74.3975 98.9102 74.5607 98.9692C74.724 99.0282 74.9038 99.0549 75.1048 99.0549ZM79.8914 100.409C79.6904 100.409 79.4997 100.382 79.3206 100.33C79.1409 100.277 78.9721 100.205 78.8109 100.114C78.6531 100.022 78.5001 99.918 78.3581 99.7945C78.2133 99.6738 78.0768 99.5427 77.9512 99.4007C77.8113 99.516 77.6453 99.6312 77.447 99.752C77.2542 99.872 77.0319 99.9818 76.7849 100.079C76.5386 100.175 76.2656 100.253 75.9706 100.317C75.6728 100.379 75.3538 100.409 75.0135 100.409C74.5745 100.409 74.1697 100.357 73.7917 100.25C73.4191 100.146 73.0974 99.99 72.8243 99.7787C72.5533 99.5695 72.3448 99.3122 72.1918 99.0042C72.0388 98.6954 71.9613 98.3366 71.9613 97.9291C71.9613 97.6101 72.0203 97.3233 72.1328 97.077C72.248 96.8252 72.3983 96.6057 72.5828 96.4177C72.7708 96.2304 72.9773 96.0692 73.2099 95.9327C73.4459 95.7962 73.6819 95.6836 73.9227 95.5951C73.8054 95.5039 73.6901 95.3996 73.5694 95.2789C73.4514 95.1636 73.3444 95.0326 73.2504 94.8906C73.1564 94.7506 73.0789 94.5956 73.0226 94.4295C72.9609 94.2635 72.9341 94.092 72.9341 93.9068C72.9341 93.609 72.9931 93.3442 73.1138 93.1164C73.2346 92.8859 73.4034 92.6904 73.6202 92.5319C73.8349 92.3741 74.0942 92.2534 74.3975 92.1703C74.6973 92.0873 75.03 92.0469 75.3888 92.0469C75.7346 92.0469 76.0509 92.0901 76.3404 92.1758C76.6299 92.2637 76.8762 92.3844 77.0827 92.5401C77.2919 92.6924 77.4525 92.8777 77.5622 93.0945C77.6775 93.3119 77.7338 93.5479 77.7338 93.81C77.7338 94.2285 77.6082 94.5901 77.3557 94.8954C77.1067 95.2041 76.7527 95.4504 76.2944 95.6432C76.4769 95.7262 76.6484 95.8202 76.8144 95.9244C76.9805 96.0294 77.1444 96.1522 77.3022 96.2867C77.4607 96.4205 77.613 96.5735 77.7633 96.7422C77.9135 96.9137 78.0638 97.1093 78.2085 97.3316C78.5193 96.946 78.7416 96.533 78.8726 96.096C79.0071 95.6596 79.0736 95.2041 79.0736 94.7321C79.0736 94.5901 79.0661 94.4535 79.0496 94.3218C79.0311 94.1908 79.0043 94.0673 78.9666 93.9548H80.4835C80.5239 94.0755 80.5555 94.1935 80.572 94.3033C80.5905 94.4186 80.6015 94.5523 80.6015 94.7053C80.6015 95.0696 80.5637 95.4236 80.4862 95.7694C80.4087 96.1152 80.301 96.4472 80.1617 96.7608C80.0224 97.077 79.8537 97.3748 79.6581 97.6561C79.4599 97.9373 79.2424 98.2029 79.0043 98.4437C79.1889 98.6371 79.3817 98.7867 79.5751 98.8889C79.7734 98.9932 79.958 99.044 80.1295 99.044C80.312 99.044 80.4965 99.0254 80.6872 98.9849C80.8745 98.9452 81.0385 98.8917 81.1778 98.8189V100.167C80.9713 100.25 80.7675 100.312 80.5637 100.35C80.3627 100.389 80.1377 100.409 79.8914 100.409Z" fill="#E30016"/>
</svg>
